# xmcd
#
# Track frame offsets:
#	150
#	22222
#	44155
#	63035
#	82365
#	101727
#
# Disc length: 1593 seconds
#
# Revision: 4
# Processed by: cddbd v1.5.2PL0 Copyright (c) Steve Scherf et al.
# Submitted via: audiograbber 1.83.01
#
DISCID=55063706
DTITLE=SWV - Can We - CD-Single
DYEAR=1997
DGENRE=R&B
TTITLE0=Can We (Radio Edit No. 1)
TTITLE1=Can We (Radio Edit No. 2)
TTITLE2=Can We (No Rap Radio)
TTITLE3=Can We (LP Version)
TTITLE4=Can We (Instrumental)
TTITLE5=Can We (Acappella)
EXTD=Ben K.
EXTT0=
EXTT1=
EXTT2=
EXTT3=
EXTT4=
EXTT5=
PLAYORDER=
